<svg xmlns="http://www.w3.org/2000/svg" version="1.1" xmlns:xlink="http://www.w3.org/1999/xlink" width="1000" height="1000"><metadata><rdf:RDF xmlns:rdf="http://www.w3.org/1999/02/22-rdf-syntax-ns#" xmlns:dc="http://purl.org/dc/elements/1.1/"><rdf:Description><dc:creator>RealFaviconGenerator</dc:creator><dc:source>https://realfavicongenerator.net</dc:source></rdf:Description></rdf:RDF></metadata><g clip-path="url(#SvgjsClipPath1197)"><rect width="1000" height="1000" fill="#ffffff"></rect><g transform="matrix(14.754098360655737,0,0,14.754098360655737,50,57.3770491803279)"><svg xmlns="http://www.w3.org/2000/svg" width="61" height="60" viewBox="0 0 61 60" fill="none"><rect width="60.2817" height="60" rx="9.37716" fill="#9EFF00"></rect><path d="M10.9858 18.7123L30.1408 30L30.1408 51.5493L10.9858 40.6036L10.9858 18.7123Z" fill="#1A1A1A"></path><path fill-rule="evenodd" clip-rule="evenodd" d="M31.8309 29.9849V48.6369L47.6056 39.6228V20.6891L31.8309 29.9849ZM49.2957 40.6036L30.1408 51.5493V30L10.9858 18.7123L30.1408 8.45068L49.2957 18.7123V40.6036ZM46.7195 19.2495L30.1408 10.3681L14.434 18.7824L30.973 28.5287L46.7195 19.2495Z" fill="#1A1A1A"></path></svg></g></g><defs><clipPath id="SvgjsClipPath1197"><rect width="1000" height="1000" x="0" y="0" rx="500" ry="500"></rect></clipPath></defs></svg>